<mxfile host="app.diagrams.net" modified="2024-05-14T08:59:24.012Z" agent="Mozilla/5.0 (Windows NT 10.0; Win64; x64) AppleWebKit/537.36 (KHTML, like Gecko) Chrome/124.0.0.0 Safari/537.36" etag="558ocdrj_vYh0GtP12bl" version="24.4.0" type="device">
  <diagram name="Page-0" id="Page-0">
    <mxGraphModel dx="1434" dy="738" grid="1" gridSize="10" guides="1" tooltips="1" connect="1" arrows="1" fold="1" page="1" pageScale="1" pageWidth="1678" pageHeight="762" math="0" shadow="0">
      <root>
        <mxCell id="0" />
        <mxCell id="1" parent="0" />
        <mxCell id="rDg_7_HA4RRwYxQOVPkP-2" value="" style="rounded=0;whiteSpace=wrap;html=1;gradientDirection=north;fillColor=#303030;strokeColor=none;fontColor=#ffffff;gradientColor=#000000;glass=0;shadow=0;" parent="1" vertex="1">
          <mxGeometry x="30" y="10" width="1420" height="720" as="geometry" />
        </mxCell>
        <mxCell id="9hAh17yjtbbLotueZCNC-8" value="&lt;p style=&quot;margin: 6px 0px 0px; text-align: center; font-size: 14px;&quot;&gt;&lt;font color=&quot;#ffffff&quot; style=&quot;font-size: 14px;&quot;&gt;SiVa webapp&lt;/font&gt;&lt;/p&gt;&lt;hr style=&quot;border-style: solid; font-size: 14px;&quot; size=&quot;1&quot;&gt;&lt;p style=&quot;margin:0px;margin-left:8px;&quot;&gt;+&amp;nbsp;&lt;br&gt;+&amp;nbsp;&lt;/p&gt;" style="align=left;overflow=fill;html=1;dropTarget=0;whiteSpace=wrap;gradientColor=default;fillColor=#303030;gradientDirection=west;strokeColor=#808080;labelBackgroundColor=none;labelBorderColor=none;strokeWidth=2;fontFamily=Helvetica;" parent="1" vertex="1">
          <mxGeometry x="290" y="50" width="970" height="640" as="geometry" />
        </mxCell>
        <mxCell id="9hAh17yjtbbLotueZCNC-9" value="" style="shape=component;jettyWidth=8;jettyHeight=4;fillColor=#000000;strokeColor=#808080;" parent="9hAh17yjtbbLotueZCNC-8" vertex="1">
          <mxGeometry x="1" width="20" height="20" relative="1" as="geometry">
            <mxPoint x="-24" y="4" as="offset" />
          </mxGeometry>
        </mxCell>
        <mxCell id="UFCYyzMz_3A-DWR7f4tb-4" value="" style="rounded=0;whiteSpace=wrap;html=1;dashed=1;fillColor=none;strokeColor=#808080;strokeWidth=2;" parent="1" vertex="1">
          <mxGeometry x="60" y="50" width="190" height="440" as="geometry" />
        </mxCell>
        <mxCell id="9hAh17yjtbbLotueZCNC-16" value="«Subsystem»&lt;div&gt;&lt;b&gt;Digidoc4 client&lt;/b&gt;&lt;/div&gt;" style="html=1;dropTarget=0;whiteSpace=wrap;gradientColor=default;gradientDirection=west;fillColor=#303030;fontColor=#FFFFFF;strokeWidth=2;strokeColor=#808080;" parent="1" vertex="1">
          <mxGeometry x="90" y="100" width="130" height="100" as="geometry" />
        </mxCell>
        <mxCell id="9hAh17yjtbbLotueZCNC-17" value="" style="shape=module;jettyWidth=8;jettyHeight=4;strokeColor=#808080;fillColor=#000000;" parent="9hAh17yjtbbLotueZCNC-16" vertex="1">
          <mxGeometry x="1" width="20" height="20" relative="1" as="geometry">
            <mxPoint x="-27" y="7" as="offset" />
          </mxGeometry>
        </mxCell>
        <mxCell id="9hAh17yjtbbLotueZCNC-18" value="«Subsystem»&lt;br&gt;&lt;b&gt;XROAD Security Server&lt;/b&gt;" style="html=1;dropTarget=0;whiteSpace=wrap;gradientColor=default;gradientDirection=west;fillColor=#303030;fontColor=#FFFFFF;strokeColor=#808080;strokeWidth=2;" parent="1" vertex="1">
          <mxGeometry x="90" y="340" width="130" height="100" as="geometry" />
        </mxCell>
        <mxCell id="9hAh17yjtbbLotueZCNC-19" value="" style="shape=module;jettyWidth=8;jettyHeight=4;strokeColor=#808080;fillColor=#000000;" parent="9hAh17yjtbbLotueZCNC-18" vertex="1">
          <mxGeometry x="1" width="20" height="20" relative="1" as="geometry">
            <mxPoint x="-27" y="7" as="offset" />
          </mxGeometry>
        </mxCell>
        <mxCell id="9hAh17yjtbbLotueZCNC-20" value="«Subsystem»&lt;br&gt;&lt;b&gt;Monitoring&lt;/b&gt;" style="html=1;dropTarget=0;whiteSpace=wrap;gradientColor=default;gradientDirection=west;fillColor=#303030;fontColor=#FFFFFF;strokeColor=#808080;strokeWidth=2;" parent="1" vertex="1">
          <mxGeometry x="90" y="555" width="130" height="100" as="geometry" />
        </mxCell>
        <mxCell id="9hAh17yjtbbLotueZCNC-21" value="" style="shape=module;jettyWidth=8;jettyHeight=4;strokeColor=#808080;fillColor=#000000;" parent="9hAh17yjtbbLotueZCNC-20" vertex="1">
          <mxGeometry x="1" width="20" height="20" relative="1" as="geometry">
            <mxPoint x="-27" y="7" as="offset" />
          </mxGeometry>
        </mxCell>
        <mxCell id="9hAh17yjtbbLotueZCNC-22" value="Demo Webapp" style="html=1;dropTarget=0;whiteSpace=wrap;fontStyle=1;gradientColor=default;gradientDirection=west;fillColor=#303030;fontColor=#FFFFFF;strokeColor=#808080;strokeWidth=2;" parent="1" vertex="1">
          <mxGeometry x="90" y="220" width="130" height="100" as="geometry" />
        </mxCell>
        <mxCell id="9hAh17yjtbbLotueZCNC-23" value="" style="shape=module;jettyWidth=8;jettyHeight=4;strokeColor=#808080;fillColor=#000000;" parent="9hAh17yjtbbLotueZCNC-22" vertex="1">
          <mxGeometry x="1" width="20" height="20" relative="1" as="geometry">
            <mxPoint x="-27" y="7" as="offset" />
          </mxGeometry>
        </mxCell>
        <mxCell id="9hAh17yjtbbLotueZCNC-24" value="Web Gateway Service" style="html=1;dropTarget=0;whiteSpace=wrap;fontStyle=1;gradientColor=default;gradientDirection=west;fillColor=#303030;fontColor=#FFFFFF;strokeColor=#808080;strokeWidth=2;" parent="1" vertex="1">
          <mxGeometry x="340" y="170" width="110" height="200" as="geometry" />
        </mxCell>
        <mxCell id="9hAh17yjtbbLotueZCNC-25" value="" style="shape=module;jettyWidth=8;jettyHeight=4;fillColor=#000000;strokeColor=#808080;" parent="9hAh17yjtbbLotueZCNC-24" vertex="1">
          <mxGeometry x="1" width="20" height="20" relative="1" as="geometry">
            <mxPoint x="-27" y="7" as="offset" />
          </mxGeometry>
        </mxCell>
        <mxCell id="UFCYyzMz_3A-DWR7f4tb-70" value="" style="edgeStyle=orthogonalEdgeStyle;rounded=0;orthogonalLoop=1;jettySize=auto;html=1;" parent="1" source="UFCYyzMz_3A-DWR7f4tb-77" target="UFCYyzMz_3A-DWR7f4tb-58" edge="1">
          <mxGeometry relative="1" as="geometry" />
        </mxCell>
        <mxCell id="9hAh17yjtbbLotueZCNC-26" value="Monitoring Service" style="html=1;dropTarget=0;whiteSpace=wrap;fontStyle=1;gradientColor=default;gradientDirection=west;fillColor=#303030;fontColor=#FFFFFF;strokeColor=#808080;strokeWidth=2;" parent="1" vertex="1">
          <mxGeometry x="340" y="555" width="130" height="100" as="geometry" />
        </mxCell>
        <mxCell id="9hAh17yjtbbLotueZCNC-27" value="" style="shape=module;jettyWidth=8;jettyHeight=4;strokeColor=#808080;fillColor=#000000;" parent="9hAh17yjtbbLotueZCNC-26" vertex="1">
          <mxGeometry x="1" width="20" height="20" relative="1" as="geometry">
            <mxPoint x="-27" y="7" as="offset" />
          </mxGeometry>
        </mxCell>
        <mxCell id="9hAh17yjtbbLotueZCNC-28" value="Report signing service" style="html=1;dropTarget=0;whiteSpace=wrap;fontStyle=1;gradientColor=default;gradientDirection=west;fillColor=#303030;fontColor=#FFFFFF;strokeColor=#808080;strokeWidth=2;" parent="1" vertex="1">
          <mxGeometry x="480" y="90" width="130" height="110" as="geometry" />
        </mxCell>
        <mxCell id="9hAh17yjtbbLotueZCNC-29" value="" style="shape=module;jettyWidth=8;jettyHeight=4;strokeColor=#808080;fillColor=#000000;" parent="9hAh17yjtbbLotueZCNC-28" vertex="1">
          <mxGeometry x="1" width="20" height="20" relative="1" as="geometry">
            <mxPoint x="-27" y="7" as="offset" />
          </mxGeometry>
        </mxCell>
        <mxCell id="9hAh17yjtbbLotueZCNC-30" value="Hashcode validation proxy service" style="html=1;dropTarget=0;whiteSpace=wrap;fontStyle=1;gradientColor=default;gradientDirection=west;fillColor=#303030;fontColor=#FFFFFF;strokeColor=#808080;strokeWidth=2;" parent="1" vertex="1">
          <mxGeometry x="650" y="90" width="130" height="110" as="geometry" />
        </mxCell>
        <mxCell id="9hAh17yjtbbLotueZCNC-31" value="" style="shape=module;jettyWidth=8;jettyHeight=4;strokeColor=#808080;fillColor=#000000;" parent="9hAh17yjtbbLotueZCNC-30" vertex="1">
          <mxGeometry x="1" width="20" height="20" relative="1" as="geometry">
            <mxPoint x="-27" y="7" as="offset" />
          </mxGeometry>
        </mxCell>
        <mxCell id="9hAh17yjtbbLotueZCNC-32" value="Validation proxy service" style="dropTarget=0;whiteSpace=wrap;html=1;fontStyle=1;gradientColor=default;gradientDirection=west;fillColor=#303030;fontColor=#FFFFFF;strokeColor=#808080;strokeWidth=2;" parent="1" vertex="1">
          <mxGeometry x="544" y="271" width="131" height="110" as="geometry" />
        </mxCell>
        <mxCell id="9hAh17yjtbbLotueZCNC-33" value="" style="shape=module;jettyWidth=8;jettyHeight=4;strokeColor=#808080;fillColor=#000000;" parent="9hAh17yjtbbLotueZCNC-32" vertex="1">
          <mxGeometry x="1" width="20" height="20" relative="1" as="geometry">
            <mxPoint x="-27" y="7" as="offset" />
          </mxGeometry>
        </mxCell>
        <mxCell id="9hAh17yjtbbLotueZCNC-34" value="Data files proxy service" style="html=1;dropTarget=0;whiteSpace=wrap;fontStyle=1;gradientColor=default;gradientDirection=west;fillColor=#303030;fontColor=#FFFFFF;strokeColor=#808080;strokeWidth=2;" parent="1" vertex="1">
          <mxGeometry x="544" y="440" width="131" height="110" as="geometry" />
        </mxCell>
        <mxCell id="9hAh17yjtbbLotueZCNC-35" value="" style="shape=module;jettyWidth=8;jettyHeight=4;strokeColor=#808080;fillColor=#000000;" parent="9hAh17yjtbbLotueZCNC-34" vertex="1">
          <mxGeometry x="1" width="20" height="20" relative="1" as="geometry">
            <mxPoint x="-27" y="7" as="offset" />
          </mxGeometry>
        </mxCell>
        <mxCell id="9hAh17yjtbbLotueZCNC-36" value="Statistics service" style="html=1;dropTarget=0;whiteSpace=wrap;fontStyle=1;gradientColor=default;gradientDirection=west;fillColor=#303030;fontColor=#FFFFFF;strokeColor=#808080;strokeWidth=2;" parent="1" vertex="1">
          <mxGeometry x="830" y="90" width="114" height="90" as="geometry" />
        </mxCell>
        <mxCell id="9hAh17yjtbbLotueZCNC-37" value="" style="shape=module;jettyWidth=8;jettyHeight=4;strokeColor=#808080;fillColor=#000000;" parent="9hAh17yjtbbLotueZCNC-36" vertex="1">
          <mxGeometry x="1" width="20" height="20" relative="1" as="geometry">
            <mxPoint x="-27" y="7" as="offset" />
          </mxGeometry>
        </mxCell>
        <mxCell id="9hAh17yjtbbLotueZCNC-38" value="Generic validation service" style="html=1;dropTarget=0;whiteSpace=wrap;fontStyle=1;gradientColor=default;gradientDirection=west;fillColor=#303030;fontColor=#FFFFFF;strokeColor=#808080;strokeWidth=2;" parent="1" vertex="1">
          <mxGeometry x="830" y="290" width="114" height="90" as="geometry" />
        </mxCell>
        <mxCell id="9hAh17yjtbbLotueZCNC-39" value="" style="shape=module;jettyWidth=8;jettyHeight=4;strokeColor=#808080;fillColor=#000000;" parent="9hAh17yjtbbLotueZCNC-38" vertex="1">
          <mxGeometry x="1" width="20" height="20" relative="1" as="geometry">
            <mxPoint x="-27" y="7" as="offset" />
          </mxGeometry>
        </mxCell>
        <mxCell id="9hAh17yjtbbLotueZCNC-40" value="Timemark container validation service" style="html=1;dropTarget=0;whiteSpace=wrap;fontStyle=1;gradientColor=default;gradientDirection=west;fillColor=#303030;fontColor=#FFFFFF;strokeColor=#808080;strokeWidth=2;" parent="1" vertex="1">
          <mxGeometry x="830" y="390" width="114" height="90" as="geometry" />
        </mxCell>
        <mxCell id="9hAh17yjtbbLotueZCNC-41" value="" style="shape=module;jettyWidth=8;jettyHeight=4;strokeColor=#808080;fillColor=#000000;" parent="9hAh17yjtbbLotueZCNC-40" vertex="1">
          <mxGeometry x="1" width="20" height="20" relative="1" as="geometry">
            <mxPoint x="-27" y="7" as="offset" />
          </mxGeometry>
        </mxCell>
        <mxCell id="9hAh17yjtbbLotueZCNC-42" value="TST validation service" style="html=1;dropTarget=0;whiteSpace=wrap;fontStyle=1;gradientColor=default;gradientDirection=west;fillColor=#303030;fontColor=#FFFFFF;strokeColor=#808080;strokeWidth=2;" parent="1" vertex="1">
          <mxGeometry x="830" y="490" width="114" height="90" as="geometry" />
        </mxCell>
        <mxCell id="9hAh17yjtbbLotueZCNC-43" value="" style="shape=module;jettyWidth=8;jettyHeight=4;strokeColor=#808080;fillColor=#000000;" parent="9hAh17yjtbbLotueZCNC-42" vertex="1">
          <mxGeometry x="1" width="20" height="20" relative="1" as="geometry">
            <mxPoint x="-27" y="7" as="offset" />
          </mxGeometry>
        </mxCell>
        <mxCell id="9hAh17yjtbbLotueZCNC-44" value="DSS" style="html=1;dropTarget=0;whiteSpace=wrap;fontStyle=1;gradientColor=default;gradientDirection=west;fillColor=#303030;fontColor=#FFFFFF;strokeColor=#808080;strokeWidth=2;" parent="1" vertex="1">
          <mxGeometry x="980" y="290" width="110" height="90" as="geometry" />
        </mxCell>
        <mxCell id="9hAh17yjtbbLotueZCNC-45" value="" style="shape=module;jettyWidth=8;jettyHeight=4;strokeColor=#808080;fillColor=#000000;" parent="9hAh17yjtbbLotueZCNC-44" vertex="1">
          <mxGeometry x="1" width="20" height="20" relative="1" as="geometry">
            <mxPoint x="-27" y="7" as="offset" />
          </mxGeometry>
        </mxCell>
        <mxCell id="9hAh17yjtbbLotueZCNC-46" value="Digidoc4j" style="html=1;dropTarget=0;whiteSpace=wrap;fontStyle=1;gradientColor=default;gradientDirection=west;fillColor=#303030;fontColor=#FFFFFF;strokeColor=#808080;strokeWidth=2;" parent="1" vertex="1">
          <mxGeometry x="980" y="500" width="110" height="90" as="geometry" />
        </mxCell>
        <mxCell id="9hAh17yjtbbLotueZCNC-47" value="" style="shape=module;jettyWidth=8;jettyHeight=4;strokeColor=#808080;fillColor=#000000;" parent="9hAh17yjtbbLotueZCNC-46" vertex="1">
          <mxGeometry x="1" width="20" height="20" relative="1" as="geometry">
            <mxPoint x="-27" y="7" as="offset" />
          </mxGeometry>
        </mxCell>
        <mxCell id="9hAh17yjtbbLotueZCNC-48" value="Logger" style="html=1;dropTarget=0;whiteSpace=wrap;fontStyle=1;gradientColor=default;gradientDirection=west;fillColor=#303030;fontColor=#FFFFFF;strokeColor=#808080;strokeWidth=2;" parent="1" vertex="1">
          <mxGeometry x="1110" y="90" width="104" height="90" as="geometry" />
        </mxCell>
        <mxCell id="9hAh17yjtbbLotueZCNC-49" value="" style="shape=module;jettyWidth=8;jettyHeight=4;strokeColor=#808080;fillColor=#000000;" parent="9hAh17yjtbbLotueZCNC-48" vertex="1">
          <mxGeometry x="1" width="20" height="20" relative="1" as="geometry">
            <mxPoint x="-27" y="7" as="offset" />
          </mxGeometry>
        </mxCell>
        <mxCell id="9hAh17yjtbbLotueZCNC-50" value="TSL loader" style="html=1;dropTarget=0;whiteSpace=wrap;fontStyle=1;gradientColor=default;gradientDirection=west;fillColor=#303030;fontColor=#FFFFFF;strokeColor=#808080;perimeterSpacing=0;strokeWidth=2;" parent="1" vertex="1">
          <mxGeometry x="1110" y="400" width="106" height="90" as="geometry" />
        </mxCell>
        <mxCell id="9hAh17yjtbbLotueZCNC-51" value="" style="shape=module;jettyWidth=8;jettyHeight=4;strokeColor=#808080;fillColor=#000000;" parent="9hAh17yjtbbLotueZCNC-50" vertex="1">
          <mxGeometry x="1" width="20" height="20" relative="1" as="geometry">
            <mxPoint x="-27" y="7" as="offset" />
          </mxGeometry>
        </mxCell>
        <mxCell id="9hAh17yjtbbLotueZCNC-52" value="Validation commons" style="html=1;dropTarget=0;whiteSpace=wrap;fontStyle=1;gradientColor=default;gradientDirection=west;fillColor=#303030;fontColor=#FFFFFF;strokeColor=#808080;strokeWidth=2;" parent="1" vertex="1">
          <mxGeometry x="1110" y="190" width="106" height="90" as="geometry" />
        </mxCell>
        <mxCell id="9hAh17yjtbbLotueZCNC-53" value="" style="shape=module;jettyWidth=8;jettyHeight=4;strokeColor=#808080;fillColor=#000000;" parent="9hAh17yjtbbLotueZCNC-52" vertex="1">
          <mxGeometry x="1" width="20" height="20" relative="1" as="geometry">
            <mxPoint x="-27" y="7" as="offset" />
          </mxGeometry>
        </mxCell>
        <mxCell id="9hAh17yjtbbLotueZCNC-54" value="Configuration" style="html=1;dropTarget=0;whiteSpace=wrap;fontStyle=1;gradientColor=default;gradientDirection=west;fillColor=#303030;fontColor=#FFFFFF;strokeColor=#808080;strokeWidth=2;" parent="1" vertex="1">
          <mxGeometry x="1110" y="560" width="106" height="90" as="geometry" />
        </mxCell>
        <mxCell id="9hAh17yjtbbLotueZCNC-55" value="" style="shape=module;jettyWidth=8;jettyHeight=4;strokeColor=#808080;fillColor=#000000;" parent="9hAh17yjtbbLotueZCNC-54" vertex="1">
          <mxGeometry x="1" width="20" height="20" relative="1" as="geometry">
            <mxPoint x="-27" y="7" as="offset" />
          </mxGeometry>
        </mxCell>
        <mxCell id="9hAh17yjtbbLotueZCNC-56" value="Externalized configuration" style="html=1;dropTarget=0;whiteSpace=wrap;fontStyle=1;gradientColor=default;gradientDirection=west;fillColor=#303030;fontColor=#FFFFFF;strokeColor=#808080;strokeWidth=2;" parent="1" vertex="1">
          <mxGeometry x="1320" y="560" width="106" height="90" as="geometry" />
        </mxCell>
        <mxCell id="9hAh17yjtbbLotueZCNC-58" value="Policies &amp;amp; constraints" style="html=1;dropTarget=0;whiteSpace=wrap;fontStyle=1;gradientColor=default;gradientDirection=west;fillColor=#303030;fontColor=#FFFFFF;strokeColor=#808080;strokeWidth=2;" parent="1" vertex="1">
          <mxGeometry x="1320" y="192.5" width="106" height="85" as="geometry" />
        </mxCell>
        <mxCell id="9hAh17yjtbbLotueZCNC-60" value="«subsystem»&lt;br&gt;&lt;b&gt;EU TSL provider&lt;/b&gt;" style="html=1;dropTarget=0;whiteSpace=wrap;gradientColor=default;gradientDirection=west;fillColor=#303030;fontColor=#FFFFFF;strokeColor=#808080;strokeWidth=2;" parent="1" vertex="1">
          <mxGeometry x="1320" y="402.5" width="106" height="85" as="geometry" />
        </mxCell>
        <mxCell id="9hAh17yjtbbLotueZCNC-61" value="" style="shape=module;jettyWidth=8;jettyHeight=4;strokeColor=#808080;fillColor=#000000;" parent="9hAh17yjtbbLotueZCNC-60" vertex="1">
          <mxGeometry x="1" width="20" height="20" relative="1" as="geometry">
            <mxPoint x="-27" y="7" as="offset" />
          </mxGeometry>
        </mxCell>
        <mxCell id="9hAh17yjtbbLotueZCNC-64" value="DDOC data files service" style="html=1;dropTarget=0;whiteSpace=wrap;fontStyle=1;gradientColor=default;gradientDirection=west;fillColor=#303030;fontColor=#FFFFFF;strokeColor=#808080;strokeWidth=2;" parent="1" vertex="1">
          <mxGeometry x="830" y="590" width="114" height="90" as="geometry" />
        </mxCell>
        <mxCell id="9hAh17yjtbbLotueZCNC-65" value="" style="shape=module;jettyWidth=8;jettyHeight=4;strokeColor=#808080;fillColor=#000000;" parent="9hAh17yjtbbLotueZCNC-64" vertex="1">
          <mxGeometry x="1" width="20" height="20" relative="1" as="geometry">
            <mxPoint x="-27" y="7" as="offset" />
          </mxGeometry>
        </mxCell>
        <mxCell id="UFCYyzMz_3A-DWR7f4tb-5" value="&lt;font color=&quot;#ffffff&quot; style=&quot;font-size: 13px;&quot;&gt;Validation service clients&lt;/font&gt;" style="text;html=1;align=center;verticalAlign=middle;whiteSpace=wrap;rounded=0;fontSize=13;" parent="1" vertex="1">
          <mxGeometry x="80" y="60" width="150" height="30" as="geometry" />
        </mxCell>
        <mxCell id="UFCYyzMz_3A-DWR7f4tb-10" value="" style="sketch=0;pointerEvents=1;shadow=0;dashed=0;html=1;labelPosition=center;verticalLabelPosition=bottom;verticalAlign=top;outlineConnect=0;align=center;shape=mxgraph.office.concepts.document;fillColor=#000000;strokeColor=#000000;" parent="1" vertex="1">
          <mxGeometry x="1400" y="560" width="20" height="22.5" as="geometry" />
        </mxCell>
        <mxCell id="UFCYyzMz_3A-DWR7f4tb-14" value="" style="html=1;verticalAlign=bottom;labelBackgroundColor=none;endArrow=open;endFill=0;dashed=1;rounded=0;strokeColor=#FFFFFF;exitX=0.154;exitY=1.045;exitDx=0;exitDy=0;exitPerimeter=0;entryX=1;entryY=0.25;entryDx=0;entryDy=0;strokeWidth=2;" parent="1" source="9hAh17yjtbbLotueZCNC-28" target="9hAh17yjtbbLotueZCNC-24" edge="1">
          <mxGeometry width="160" relative="1" as="geometry">
            <mxPoint x="650" y="380" as="sourcePoint" />
            <mxPoint x="810" y="380" as="targetPoint" />
          </mxGeometry>
        </mxCell>
        <mxCell id="UFCYyzMz_3A-DWR7f4tb-15" value="" style="html=1;verticalAlign=bottom;labelBackgroundColor=none;endArrow=open;endFill=0;dashed=1;rounded=0;strokeColor=#FFFFFF;exitX=0.5;exitY=0;exitDx=0;exitDy=0;entryX=0.5;entryY=1;entryDx=0;entryDy=0;strokeWidth=2;" parent="1" source="9hAh17yjtbbLotueZCNC-32" target="9hAh17yjtbbLotueZCNC-28" edge="1">
          <mxGeometry width="160" relative="1" as="geometry">
            <mxPoint x="510" y="215" as="sourcePoint" />
            <mxPoint x="460" y="230" as="targetPoint" />
          </mxGeometry>
        </mxCell>
        <mxCell id="UFCYyzMz_3A-DWR7f4tb-16" value="" style="html=1;verticalAlign=bottom;labelBackgroundColor=none;endArrow=open;endFill=0;dashed=1;rounded=0;strokeColor=#FFFFFF;exitX=1.036;exitY=0.46;exitDx=0;exitDy=0;exitPerimeter=0;entryX=0;entryY=1;entryDx=0;entryDy=0;strokeWidth=2;" parent="1" source="9hAh17yjtbbLotueZCNC-24" target="9hAh17yjtbbLotueZCNC-30" edge="1">
          <mxGeometry width="160" relative="1" as="geometry">
            <mxPoint x="520" y="225" as="sourcePoint" />
            <mxPoint x="470" y="240" as="targetPoint" />
          </mxGeometry>
        </mxCell>
        <mxCell id="UFCYyzMz_3A-DWR7f4tb-17" value="" style="html=1;verticalAlign=bottom;labelBackgroundColor=none;endArrow=open;endFill=0;dashed=1;rounded=0;strokeColor=#FFFFFF;exitX=1.018;exitY=0.575;exitDx=0;exitDy=0;exitPerimeter=0;entryX=0;entryY=0.5;entryDx=0;entryDy=0;strokeWidth=2;" parent="1" source="9hAh17yjtbbLotueZCNC-24" target="9hAh17yjtbbLotueZCNC-32" edge="1">
          <mxGeometry width="160" relative="1" as="geometry">
            <mxPoint x="530" y="235" as="sourcePoint" />
            <mxPoint x="480" y="250" as="targetPoint" />
          </mxGeometry>
        </mxCell>
        <mxCell id="UFCYyzMz_3A-DWR7f4tb-18" value="" style="html=1;verticalAlign=bottom;labelBackgroundColor=none;endArrow=open;endFill=0;dashed=1;rounded=0;strokeColor=#FFFFFF;exitX=1;exitY=1;exitDx=0;exitDy=0;entryX=0;entryY=0.5;entryDx=0;entryDy=0;strokeWidth=2;" parent="1" source="9hAh17yjtbbLotueZCNC-24" target="9hAh17yjtbbLotueZCNC-34" edge="1">
          <mxGeometry width="160" relative="1" as="geometry">
            <mxPoint x="540" y="245" as="sourcePoint" />
            <mxPoint x="490" y="260" as="targetPoint" />
          </mxGeometry>
        </mxCell>
        <mxCell id="UFCYyzMz_3A-DWR7f4tb-19" value="" style="html=1;verticalAlign=bottom;labelBackgroundColor=none;endArrow=open;endFill=0;dashed=1;rounded=0;strokeColor=#FFFFFF;exitX=1;exitY=0.5;exitDx=0;exitDy=0;entryX=0;entryY=0.5;entryDx=0;entryDy=0;strokeWidth=2;" parent="1" source="9hAh17yjtbbLotueZCNC-30" target="9hAh17yjtbbLotueZCNC-36" edge="1">
          <mxGeometry width="160" relative="1" as="geometry">
            <mxPoint x="464" y="272" as="sourcePoint" />
            <mxPoint x="660" y="210" as="targetPoint" />
          </mxGeometry>
        </mxCell>
        <mxCell id="UFCYyzMz_3A-DWR7f4tb-20" value="" style="html=1;verticalAlign=bottom;labelBackgroundColor=none;endArrow=open;endFill=0;dashed=1;rounded=0;strokeColor=#FFFFFF;exitX=1;exitY=0.25;exitDx=0;exitDy=0;entryX=0;entryY=1;entryDx=0;entryDy=0;strokeWidth=2;" parent="1" source="9hAh17yjtbbLotueZCNC-32" target="9hAh17yjtbbLotueZCNC-36" edge="1">
          <mxGeometry width="160" relative="1" as="geometry">
            <mxPoint x="474" y="282" as="sourcePoint" />
            <mxPoint x="670" y="220" as="targetPoint" />
          </mxGeometry>
        </mxCell>
        <mxCell id="UFCYyzMz_3A-DWR7f4tb-23" value="" style="html=1;verticalAlign=bottom;labelBackgroundColor=none;endArrow=open;endFill=0;dashed=1;rounded=0;strokeColor=#FFFFFF;exitX=1;exitY=0.5;exitDx=0;exitDy=0;entryX=0;entryY=0.5;entryDx=0;entryDy=0;strokeWidth=2;" parent="1" source="9hAh17yjtbbLotueZCNC-38" target="9hAh17yjtbbLotueZCNC-44" edge="1">
          <mxGeometry width="160" relative="1" as="geometry">
            <mxPoint x="464" y="272" as="sourcePoint" />
            <mxPoint x="660" y="210" as="targetPoint" />
          </mxGeometry>
        </mxCell>
        <mxCell id="UFCYyzMz_3A-DWR7f4tb-24" value="" style="html=1;verticalAlign=bottom;labelBackgroundColor=none;endArrow=open;endFill=0;dashed=1;rounded=0;strokeColor=#FFFFFF;exitX=1;exitY=0.5;exitDx=0;exitDy=0;entryX=0.25;entryY=0;entryDx=0;entryDy=0;strokeWidth=2;" parent="1" source="9hAh17yjtbbLotueZCNC-40" target="9hAh17yjtbbLotueZCNC-46" edge="1">
          <mxGeometry width="160" relative="1" as="geometry">
            <mxPoint x="954" y="295" as="sourcePoint" />
            <mxPoint x="990" y="295" as="targetPoint" />
          </mxGeometry>
        </mxCell>
        <mxCell id="UFCYyzMz_3A-DWR7f4tb-25" value="" style="html=1;verticalAlign=bottom;labelBackgroundColor=none;endArrow=open;endFill=0;dashed=1;rounded=0;strokeColor=#FFFFFF;exitX=1;exitY=0.5;exitDx=0;exitDy=0;entryX=0.5;entryY=1;entryDx=0;entryDy=0;strokeWidth=2;" parent="1" source="9hAh17yjtbbLotueZCNC-64" target="9hAh17yjtbbLotueZCNC-46" edge="1">
          <mxGeometry width="160" relative="1" as="geometry">
            <mxPoint x="964" y="305" as="sourcePoint" />
            <mxPoint x="1000" y="305" as="targetPoint" />
          </mxGeometry>
        </mxCell>
        <mxCell id="UFCYyzMz_3A-DWR7f4tb-26" value="" style="html=1;verticalAlign=bottom;labelBackgroundColor=none;endArrow=open;endFill=0;dashed=1;rounded=0;strokeColor=#FFFFFF;exitX=0;exitY=0.25;exitDx=0;exitDy=0;strokeWidth=2;entryX=0.75;entryY=1;entryDx=0;entryDy=0;" parent="1" source="9hAh17yjtbbLotueZCNC-50" target="9hAh17yjtbbLotueZCNC-44" edge="1">
          <mxGeometry width="160" relative="1" as="geometry">
            <mxPoint x="974" y="315" as="sourcePoint" />
            <mxPoint x="1040" y="330" as="targetPoint" />
          </mxGeometry>
        </mxCell>
        <mxCell id="UFCYyzMz_3A-DWR7f4tb-27" value="" style="html=1;verticalAlign=bottom;labelBackgroundColor=none;endArrow=open;endFill=0;dashed=1;rounded=0;strokeColor=#FFFFFF;exitX=0;exitY=0.75;exitDx=0;exitDy=0;entryX=0.75;entryY=0;entryDx=0;entryDy=0;strokeWidth=2;" parent="1" source="9hAh17yjtbbLotueZCNC-50" target="9hAh17yjtbbLotueZCNC-46" edge="1">
          <mxGeometry width="160" relative="1" as="geometry">
            <mxPoint x="984" y="325" as="sourcePoint" />
            <mxPoint x="1020" y="325" as="targetPoint" />
          </mxGeometry>
        </mxCell>
        <mxCell id="UFCYyzMz_3A-DWR7f4tb-28" value="" style="html=1;verticalAlign=bottom;labelBackgroundColor=none;endArrow=open;endFill=0;dashed=1;rounded=0;strokeColor=#FFFFFF;exitX=1;exitY=0.5;exitDx=0;exitDy=0;entryX=0;entryY=0.5;entryDx=0;entryDy=0;strokeWidth=2;" parent="1" source="9hAh17yjtbbLotueZCNC-52" target="9hAh17yjtbbLotueZCNC-58" edge="1">
          <mxGeometry width="160" relative="1" as="geometry">
            <mxPoint x="994" y="335" as="sourcePoint" />
            <mxPoint x="1030" y="335" as="targetPoint" />
          </mxGeometry>
        </mxCell>
        <mxCell id="UFCYyzMz_3A-DWR7f4tb-29" value="" style="html=1;verticalAlign=bottom;labelBackgroundColor=none;endArrow=open;endFill=0;dashed=1;rounded=0;strokeColor=#FFFFFF;exitX=1;exitY=0.5;exitDx=0;exitDy=0;entryX=0;entryY=0.5;entryDx=0;entryDy=0;strokeWidth=2;" parent="1" source="9hAh17yjtbbLotueZCNC-54" target="9hAh17yjtbbLotueZCNC-56" edge="1">
          <mxGeometry width="160" relative="1" as="geometry">
            <mxPoint x="1004" y="345" as="sourcePoint" />
            <mxPoint x="1040" y="345" as="targetPoint" />
          </mxGeometry>
        </mxCell>
        <mxCell id="UFCYyzMz_3A-DWR7f4tb-30" value="" style="html=1;verticalAlign=bottom;labelBackgroundColor=none;endArrow=open;endFill=0;dashed=1;rounded=0;strokeColor=#FFFFFF;exitX=0.5;exitY=0;exitDx=0;exitDy=0;strokeWidth=2;entryX=0.5;entryY=1;entryDx=0;entryDy=0;" parent="1" source="9hAh17yjtbbLotueZCNC-46" target="9hAh17yjtbbLotueZCNC-44" edge="1">
          <mxGeometry width="160" relative="1" as="geometry">
            <mxPoint x="1014" y="355" as="sourcePoint" />
            <mxPoint x="1050" y="350" as="targetPoint" />
          </mxGeometry>
        </mxCell>
        <mxCell id="UFCYyzMz_3A-DWR7f4tb-31" value="" style="html=1;verticalAlign=bottom;labelBackgroundColor=none;startArrow=halfCircle;startFill=0;startSize=2;endArrow=none;rounded=0;strokeColor=#FFFFFF;entryX=1;entryY=0.5;entryDx=0;entryDy=0;strokeWidth=2;exitX=0;exitY=0.5;exitDx=0;exitDy=0;" parent="1" source="UFCYyzMz_3A-DWR7f4tb-49" target="9hAh17yjtbbLotueZCNC-32" edge="1">
          <mxGeometry x="-1" y="3" relative="1" as="geometry">
            <mxPoint x="750" y="310" as="sourcePoint" />
            <mxPoint x="810" y="380" as="targetPoint" />
          </mxGeometry>
        </mxCell>
        <mxCell id="UFCYyzMz_3A-DWR7f4tb-32" value="" style="html=1;verticalAlign=bottom;labelBackgroundColor=none;startArrow=halfCircle;startFill=0;startSize=2;endArrow=none;rounded=0;strokeColor=#FFFFFF;entryX=1;entryY=0.75;entryDx=0;entryDy=0;strokeWidth=2;exitX=0;exitY=0.5;exitDx=0;exitDy=0;" parent="1" source="UFCYyzMz_3A-DWR7f4tb-46" target="9hAh17yjtbbLotueZCNC-32" edge="1">
          <mxGeometry x="-1" y="3" relative="1" as="geometry">
            <mxPoint x="771.0956559527849" y="385.9382623811139" as="sourcePoint" />
            <mxPoint x="685" y="336" as="targetPoint" />
          </mxGeometry>
        </mxCell>
        <mxCell id="UFCYyzMz_3A-DWR7f4tb-33" value="" style="html=1;verticalAlign=bottom;labelBackgroundColor=none;startArrow=halfCircle;startFill=0;startSize=2;endArrow=none;rounded=0;strokeColor=#FFFFFF;entryX=1;entryY=1;entryDx=0;entryDy=0;strokeWidth=2;exitX=0;exitY=0;exitDx=0;exitDy=0;" parent="1" source="UFCYyzMz_3A-DWR7f4tb-41" target="9hAh17yjtbbLotueZCNC-32" edge="1">
          <mxGeometry x="-1" y="3" relative="1" as="geometry">
            <mxPoint x="770" y="330" as="sourcePoint" />
            <mxPoint x="695" y="346" as="targetPoint" />
          </mxGeometry>
        </mxCell>
        <mxCell id="UFCYyzMz_3A-DWR7f4tb-34" value="" style="html=1;verticalAlign=bottom;labelBackgroundColor=none;startArrow=halfCircle;startFill=0;startSize=2;endArrow=none;rounded=0;strokeColor=#FFFFFF;entryX=1;entryY=0.5;entryDx=0;entryDy=0;exitX=0;exitY=0;exitDx=0;exitDy=0;strokeWidth=2;" parent="1" source="UFCYyzMz_3A-DWR7f4tb-38" target="9hAh17yjtbbLotueZCNC-34" edge="1">
          <mxGeometry x="-1" y="3" relative="1" as="geometry">
            <mxPoint x="780" y="340" as="sourcePoint" />
            <mxPoint x="705" y="356" as="targetPoint" />
          </mxGeometry>
        </mxCell>
        <mxCell id="UFCYyzMz_3A-DWR7f4tb-35" value="" style="html=1;verticalAlign=bottom;labelBackgroundColor=none;startArrow=halfCircle;startFill=0;startSize=2;endArrow=none;rounded=0;strokeColor=#FFFFFF;entryX=0.5;entryY=1;entryDx=0;entryDy=0;strokeWidth=2;exitX=0;exitY=0;exitDx=0;exitDy=0;" parent="1" source="UFCYyzMz_3A-DWR7f4tb-50" target="9hAh17yjtbbLotueZCNC-30" edge="1">
          <mxGeometry x="-1" y="3" relative="1" as="geometry">
            <mxPoint x="790" y="350" as="sourcePoint" />
            <mxPoint x="715" y="366" as="targetPoint" />
          </mxGeometry>
        </mxCell>
        <mxCell id="UFCYyzMz_3A-DWR7f4tb-38" value="" style="ellipse;html=1;" parent="1" vertex="1">
          <mxGeometry x="740" y="545" width="10" height="10" as="geometry" />
        </mxCell>
        <mxCell id="UFCYyzMz_3A-DWR7f4tb-40" value="" style="endArrow=none;startArrow=none;endFill=0;startFill=0;endSize=8;html=1;verticalAlign=bottom;labelBackgroundColor=none;strokeWidth=2;rounded=0;strokeColor=#FFFFFF;entryX=0;entryY=0.5;entryDx=0;entryDy=0;exitX=1;exitY=1;exitDx=0;exitDy=0;" parent="1" source="UFCYyzMz_3A-DWR7f4tb-38" target="9hAh17yjtbbLotueZCNC-64" edge="1">
          <mxGeometry width="160" relative="1" as="geometry">
            <mxPoint x="650" y="380" as="sourcePoint" />
            <mxPoint x="810" y="380" as="targetPoint" />
          </mxGeometry>
        </mxCell>
        <mxCell id="UFCYyzMz_3A-DWR7f4tb-42" value="" style="endArrow=none;startArrow=none;endFill=0;startFill=0;endSize=8;html=1;verticalAlign=bottom;labelBackgroundColor=none;strokeWidth=2;rounded=0;strokeColor=#FFFFFF;entryX=0;entryY=0.5;entryDx=0;entryDy=0;exitX=1;exitY=1;exitDx=0;exitDy=0;" parent="1" source="UFCYyzMz_3A-DWR7f4tb-41" target="9hAh17yjtbbLotueZCNC-42" edge="1">
          <mxGeometry width="160" relative="1" as="geometry">
            <mxPoint x="765" y="445" as="sourcePoint" />
            <mxPoint x="810" y="530" as="targetPoint" />
          </mxGeometry>
        </mxCell>
        <mxCell id="UFCYyzMz_3A-DWR7f4tb-41" value="" style="ellipse;fillColor=strokeColor;html=1;strokeColor=#FFFFFF;" parent="1" vertex="1">
          <mxGeometry x="735" y="430" width="10" height="10" as="geometry" />
        </mxCell>
        <mxCell id="UFCYyzMz_3A-DWR7f4tb-46" value="" style="ellipse;fillColor=strokeColor;html=1;strokeColor=#FFFFFF;" parent="1" vertex="1">
          <mxGeometry x="745" y="371" width="10" height="10" as="geometry" />
        </mxCell>
        <mxCell id="UFCYyzMz_3A-DWR7f4tb-49" value="" style="ellipse;fillColor=strokeColor;html=1;strokeColor=#FFFFFF;" parent="1" vertex="1">
          <mxGeometry x="750" y="321" width="10" height="10" as="geometry" />
        </mxCell>
        <mxCell id="UFCYyzMz_3A-DWR7f4tb-50" value="" style="ellipse;fillColor=strokeColor;html=1;strokeColor=#FFFFFF;" parent="1" vertex="1">
          <mxGeometry x="760" y="230" width="10" height="10" as="geometry" />
        </mxCell>
        <mxCell id="UFCYyzMz_3A-DWR7f4tb-53" value="" style="endArrow=none;startArrow=none;endFill=0;startFill=0;endSize=8;html=1;verticalAlign=bottom;labelBackgroundColor=none;strokeWidth=2;rounded=0;strokeColor=#FFFFFF;entryX=0;entryY=0.25;entryDx=0;entryDy=0;exitX=1;exitY=1;exitDx=0;exitDy=0;" parent="1" source="UFCYyzMz_3A-DWR7f4tb-50" target="9hAh17yjtbbLotueZCNC-38" edge="1">
          <mxGeometry width="160" relative="1" as="geometry">
            <mxPoint x="754" y="449" as="sourcePoint" />
            <mxPoint x="840" y="515" as="targetPoint" />
          </mxGeometry>
        </mxCell>
        <mxCell id="UFCYyzMz_3A-DWR7f4tb-54" value="" style="endArrow=none;startArrow=none;endFill=0;startFill=0;endSize=8;html=1;verticalAlign=bottom;labelBackgroundColor=none;strokeWidth=2;rounded=0;strokeColor=#FFFFFF;entryX=0;entryY=0.5;entryDx=0;entryDy=0;exitX=1;exitY=0.5;exitDx=0;exitDy=0;" parent="1" source="UFCYyzMz_3A-DWR7f4tb-49" target="9hAh17yjtbbLotueZCNC-38" edge="1">
          <mxGeometry width="160" relative="1" as="geometry">
            <mxPoint x="760" y="310" as="sourcePoint" />
            <mxPoint x="840" y="273" as="targetPoint" />
          </mxGeometry>
        </mxCell>
        <mxCell id="UFCYyzMz_3A-DWR7f4tb-55" value="" style="endArrow=none;startArrow=none;endFill=0;startFill=0;endSize=8;html=1;verticalAlign=bottom;labelBackgroundColor=none;strokeWidth=2;rounded=0;strokeColor=#FFFFFF;entryX=0;entryY=0.5;entryDx=0;entryDy=0;exitX=1;exitY=0.5;exitDx=0;exitDy=0;" parent="1" source="UFCYyzMz_3A-DWR7f4tb-46" target="9hAh17yjtbbLotueZCNC-40" edge="1">
          <mxGeometry width="160" relative="1" as="geometry">
            <mxPoint x="789" y="259" as="sourcePoint" />
            <mxPoint x="850" y="283" as="targetPoint" />
          </mxGeometry>
        </mxCell>
        <mxCell id="UFCYyzMz_3A-DWR7f4tb-56" value="" style="fontStyle=0;labelPosition=right;verticalLabelPosition=middle;align=left;verticalAlign=middle;spacingLeft=2;html=1;points=[[0,0.5],[1,0.5]];fillColor=#000000;strokeColor=#FFFFFF;" parent="1" vertex="1">
          <mxGeometry x="1250" y="435" width="20" height="20" as="geometry" />
        </mxCell>
        <mxCell id="UFCYyzMz_3A-DWR7f4tb-57" value="" style="fontStyle=0;labelPosition=right;verticalLabelPosition=middle;align=left;verticalAlign=middle;spacingLeft=2;html=1;points=[[0,0.5],[1,0.5]];strokeColor=#FFFFFF;fillColor=#000000;" parent="1" vertex="1">
          <mxGeometry x="280" y="260" width="20" height="20" as="geometry" />
        </mxCell>
        <mxCell id="UFCYyzMz_3A-DWR7f4tb-58" value="" style="fontStyle=0;labelPosition=right;verticalLabelPosition=middle;align=left;verticalAlign=middle;spacingLeft=2;html=1;points=[[0,0.5],[1,0.5]];strokeColor=#FFFFFF;fillColor=#000000;" parent="1" vertex="1">
          <mxGeometry x="280" y="595" width="20" height="20" as="geometry" />
        </mxCell>
        <mxCell id="UFCYyzMz_3A-DWR7f4tb-59" value="" style="ellipse;html=1;strokeColor=#FFFFFF;fillColor=#000000;" parent="1" vertex="1">
          <mxGeometry x="250" y="320" width="30" height="30" as="geometry" />
        </mxCell>
        <mxCell id="UFCYyzMz_3A-DWR7f4tb-60" value="" style="endArrow=open;html=1;rounded=0;align=center;verticalAlign=top;endFill=0;labelBackgroundColor=none;endSize=6;entryX=0.6;entryY=1.05;entryDx=0;entryDy=0;entryPerimeter=0;strokeColor=#FFFFFF;" parent="1" source="UFCYyzMz_3A-DWR7f4tb-59" target="UFCYyzMz_3A-DWR7f4tb-57" edge="1">
          <mxGeometry relative="1" as="geometry">
            <mxPoint x="320" y="335" as="targetPoint" />
          </mxGeometry>
        </mxCell>
        <mxCell id="UFCYyzMz_3A-DWR7f4tb-61" value="" style="ellipse;html=1;strokeColor=#FFFFFF;fillColor=#000000;" parent="1" vertex="1">
          <mxGeometry x="250" y="200" width="30" height="30" as="geometry" />
        </mxCell>
        <mxCell id="UFCYyzMz_3A-DWR7f4tb-62" value="" style="endArrow=open;html=1;rounded=0;align=center;verticalAlign=top;endFill=0;labelBackgroundColor=none;endSize=6;entryX=0.508;entryY=-0.033;entryDx=0;entryDy=0;entryPerimeter=0;strokeColor=#FFFFFF;" parent="1" source="UFCYyzMz_3A-DWR7f4tb-61" target="UFCYyzMz_3A-DWR7f4tb-57" edge="1">
          <mxGeometry relative="1" as="geometry">
            <mxPoint x="320" y="215" as="targetPoint" />
          </mxGeometry>
        </mxCell>
        <mxCell id="UFCYyzMz_3A-DWR7f4tb-63" value="" style="ellipse;fillColor=strokeColor;html=1;strokeColor=#FFFFFF;" parent="1" vertex="1">
          <mxGeometry x="310" y="265" width="10" height="10" as="geometry" />
        </mxCell>
        <mxCell id="UFCYyzMz_3A-DWR7f4tb-64" value="" style="endArrow=none;startArrow=none;endFill=0;startFill=0;endSize=8;html=1;verticalAlign=bottom;labelBackgroundColor=none;strokeWidth=2;rounded=0;strokeColor=#FFFFFF;entryX=0;entryY=0.5;entryDx=0;entryDy=0;exitX=1;exitY=0.5;exitDx=0;exitDy=0;" parent="1" source="UFCYyzMz_3A-DWR7f4tb-63" target="9hAh17yjtbbLotueZCNC-24" edge="1">
          <mxGeometry width="160" relative="1" as="geometry">
            <mxPoint x="769" y="384" as="sourcePoint" />
            <mxPoint x="840" y="405" as="targetPoint" />
          </mxGeometry>
        </mxCell>
        <mxCell id="UFCYyzMz_3A-DWR7f4tb-65" value="" style="endArrow=none;startArrow=none;endFill=0;startFill=0;endSize=8;html=1;verticalAlign=bottom;labelBackgroundColor=none;strokeWidth=2;rounded=0;strokeColor=#FFFFFF;entryX=0;entryY=0.5;entryDx=0;entryDy=0;exitX=1;exitY=0.5;exitDx=0;exitDy=0;" parent="1" source="UFCYyzMz_3A-DWR7f4tb-57" target="UFCYyzMz_3A-DWR7f4tb-63" edge="1">
          <mxGeometry width="160" relative="1" as="geometry">
            <mxPoint x="330" y="280" as="sourcePoint" />
            <mxPoint x="350" y="280" as="targetPoint" />
          </mxGeometry>
        </mxCell>
        <mxCell id="UFCYyzMz_3A-DWR7f4tb-71" value="" style="html=1;verticalAlign=bottom;labelBackgroundColor=none;endArrow=open;endFill=0;dashed=1;rounded=0;strokeColor=#FFFFFF;exitX=1;exitY=0.5;exitDx=0;exitDy=0;entryX=0;entryY=0;entryDx=0;entryDy=0;strokeWidth=2;" parent="1" source="9hAh17yjtbbLotueZCNC-16" target="UFCYyzMz_3A-DWR7f4tb-61" edge="1">
          <mxGeometry width="160" relative="1" as="geometry">
            <mxPoint x="462" y="295" as="sourcePoint" />
            <mxPoint x="554" y="336" as="targetPoint" />
          </mxGeometry>
        </mxCell>
        <mxCell id="UFCYyzMz_3A-DWR7f4tb-72" value="" style="html=1;verticalAlign=bottom;labelBackgroundColor=none;endArrow=open;endFill=0;dashed=1;rounded=0;strokeColor=#FFFFFF;exitX=1;exitY=0.25;exitDx=0;exitDy=0;strokeWidth=2;" parent="1" source="9hAh17yjtbbLotueZCNC-22" edge="1">
          <mxGeometry width="160" relative="1" as="geometry">
            <mxPoint x="230" y="160" as="sourcePoint" />
            <mxPoint x="250" y="220" as="targetPoint" />
          </mxGeometry>
        </mxCell>
        <mxCell id="UFCYyzMz_3A-DWR7f4tb-73" value="" style="html=1;verticalAlign=bottom;labelBackgroundColor=none;endArrow=open;endFill=0;dashed=1;rounded=0;strokeColor=#FFFFFF;exitX=1;exitY=0.75;exitDx=0;exitDy=0;entryX=0;entryY=0;entryDx=0;entryDy=0;strokeWidth=2;" parent="1" source="9hAh17yjtbbLotueZCNC-22" target="UFCYyzMz_3A-DWR7f4tb-59" edge="1">
          <mxGeometry width="160" relative="1" as="geometry">
            <mxPoint x="240" y="170" as="sourcePoint" />
            <mxPoint x="274" y="224" as="targetPoint" />
          </mxGeometry>
        </mxCell>
        <mxCell id="UFCYyzMz_3A-DWR7f4tb-74" value="" style="html=1;verticalAlign=bottom;labelBackgroundColor=none;endArrow=open;endFill=0;dashed=1;rounded=0;strokeColor=#FFFFFF;exitX=1;exitY=0.5;exitDx=0;exitDy=0;entryX=0;entryY=1;entryDx=0;entryDy=0;strokeWidth=2;" parent="1" source="9hAh17yjtbbLotueZCNC-18" target="UFCYyzMz_3A-DWR7f4tb-59" edge="1">
          <mxGeometry width="160" relative="1" as="geometry">
            <mxPoint x="230" y="305" as="sourcePoint" />
            <mxPoint x="264" y="334" as="targetPoint" />
          </mxGeometry>
        </mxCell>
        <mxCell id="UFCYyzMz_3A-DWR7f4tb-75" value="" style="ellipse;html=1;strokeColor=#FFFFFF;fillColor=#000000;" parent="1" vertex="1">
          <mxGeometry x="240" y="590" width="30" height="30" as="geometry" />
        </mxCell>
        <mxCell id="UFCYyzMz_3A-DWR7f4tb-77" value="" style="ellipse;fillColor=strokeColor;html=1;strokeColor=#FFFFFF;" parent="1" vertex="1">
          <mxGeometry x="320" y="600" width="10" height="10" as="geometry" />
        </mxCell>
        <mxCell id="UFCYyzMz_3A-DWR7f4tb-79" value="" style="endArrow=open;html=1;rounded=0;align=center;verticalAlign=top;endFill=0;labelBackgroundColor=none;endSize=6;entryX=0;entryY=0.5;entryDx=0;entryDy=0;strokeColor=#FFFFFF;exitX=1;exitY=0.5;exitDx=0;exitDy=0;" parent="1" source="UFCYyzMz_3A-DWR7f4tb-58" target="UFCYyzMz_3A-DWR7f4tb-77" edge="1">
          <mxGeometry relative="1" as="geometry">
            <mxPoint x="302" y="291" as="targetPoint" />
            <mxPoint x="282" y="332" as="sourcePoint" />
          </mxGeometry>
        </mxCell>
        <mxCell id="UFCYyzMz_3A-DWR7f4tb-80" value="" style="endArrow=none;startArrow=none;endFill=0;startFill=0;endSize=8;html=1;verticalAlign=bottom;labelBackgroundColor=none;strokeWidth=2;rounded=0;strokeColor=#FFFFFF;entryX=0;entryY=0.5;entryDx=0;entryDy=0;exitX=1;exitY=0.5;exitDx=0;exitDy=0;" parent="1" source="UFCYyzMz_3A-DWR7f4tb-77" target="9hAh17yjtbbLotueZCNC-26" edge="1">
          <mxGeometry width="160" relative="1" as="geometry">
            <mxPoint x="330" y="280" as="sourcePoint" />
            <mxPoint x="350" y="280" as="targetPoint" />
          </mxGeometry>
        </mxCell>
        <mxCell id="UFCYyzMz_3A-DWR7f4tb-81" value="" style="endArrow=none;startArrow=none;endFill=0;startFill=0;endSize=8;html=1;verticalAlign=bottom;labelBackgroundColor=none;strokeWidth=2;rounded=0;strokeColor=#FFFFFF;entryX=0;entryY=0.5;entryDx=0;entryDy=0;exitX=1;exitY=0.5;exitDx=0;exitDy=0;" parent="1" source="UFCYyzMz_3A-DWR7f4tb-75" target="UFCYyzMz_3A-DWR7f4tb-58" edge="1">
          <mxGeometry width="160" relative="1" as="geometry">
            <mxPoint x="330" y="280" as="sourcePoint" />
            <mxPoint x="350" y="280" as="targetPoint" />
          </mxGeometry>
        </mxCell>
        <mxCell id="UFCYyzMz_3A-DWR7f4tb-82" value="" style="html=1;verticalAlign=bottom;labelBackgroundColor=none;endArrow=open;endFill=0;dashed=1;rounded=0;strokeColor=#FFFFFF;exitX=1;exitY=0.5;exitDx=0;exitDy=0;entryX=0;entryY=0.5;entryDx=0;entryDy=0;strokeWidth=2;" parent="1" source="9hAh17yjtbbLotueZCNC-20" target="UFCYyzMz_3A-DWR7f4tb-75" edge="1">
          <mxGeometry width="160" relative="1" as="geometry">
            <mxPoint x="230" y="400" as="sourcePoint" />
            <mxPoint x="264" y="356" as="targetPoint" />
          </mxGeometry>
        </mxCell>
        <mxCell id="UFCYyzMz_3A-DWR7f4tb-83" value="SOAP API" style="text;html=1;align=center;verticalAlign=middle;whiteSpace=wrap;rounded=0;fontColor=#FFFFFF;fontSize=13;" parent="1" vertex="1">
          <mxGeometry x="235" y="365" width="60" height="30" as="geometry" />
        </mxCell>
        <mxCell id="UFCYyzMz_3A-DWR7f4tb-84" value="JSON API" style="text;html=1;align=center;verticalAlign=middle;whiteSpace=wrap;rounded=0;fontColor=#FFFFFF;fontSize=13;" parent="1" vertex="1">
          <mxGeometry x="235" y="230" width="60" height="30" as="geometry" />
        </mxCell>
        <mxCell id="UFCYyzMz_3A-DWR7f4tb-85" value="JSON API" style="text;html=1;align=center;verticalAlign=middle;whiteSpace=wrap;rounded=0;fontColor=#FFFFFF;fontSize=13;" parent="1" vertex="1">
          <mxGeometry x="225" y="625" width="60" height="30" as="geometry" />
        </mxCell>
        <mxCell id="UFCYyzMz_3A-DWR7f4tb-86" value="" style="endArrow=open;html=1;rounded=0;align=center;verticalAlign=top;endFill=0;labelBackgroundColor=none;endSize=6;entryX=0;entryY=0.5;entryDx=0;entryDy=0;strokeColor=#FFFFFF;exitX=1;exitY=0.5;exitDx=0;exitDy=0;" parent="1" source="9hAh17yjtbbLotueZCNC-50" target="UFCYyzMz_3A-DWR7f4tb-56" edge="1">
          <mxGeometry relative="1" as="geometry">
            <mxPoint x="302" y="291" as="targetPoint" />
            <mxPoint x="282" y="332" as="sourcePoint" />
          </mxGeometry>
        </mxCell>
        <mxCell id="UFCYyzMz_3A-DWR7f4tb-87" value="" style="html=1;verticalAlign=bottom;labelBackgroundColor=none;startArrow=halfCircle;startFill=0;startSize=2;endArrow=none;rounded=0;strokeColor=#FFFFFF;entryX=1;entryY=0.5;entryDx=0;entryDy=0;strokeWidth=2;" parent="1" target="9hAh17yjtbbLotueZCNC-50" edge="1">
          <mxGeometry x="-1" y="3" relative="1" as="geometry">
            <mxPoint x="1230" y="445" as="sourcePoint" />
            <mxPoint x="685" y="364" as="targetPoint" />
          </mxGeometry>
        </mxCell>
        <mxCell id="UFCYyzMz_3A-DWR7f4tb-89" value="" style="ellipse;fillColor=strokeColor;html=1;strokeColor=#FFFFFF;" parent="1" vertex="1">
          <mxGeometry x="1290" y="440" width="10" height="10" as="geometry" />
        </mxCell>
        <mxCell id="UFCYyzMz_3A-DWR7f4tb-90" value="" style="endArrow=none;startArrow=none;endFill=0;startFill=0;endSize=8;html=1;verticalAlign=bottom;labelBackgroundColor=none;strokeWidth=2;rounded=0;strokeColor=#FFFFFF;entryX=1;entryY=0.5;entryDx=0;entryDy=0;exitX=0;exitY=0.5;exitDx=0;exitDy=0;" parent="1" source="9hAh17yjtbbLotueZCNC-60" target="UFCYyzMz_3A-DWR7f4tb-89" edge="1">
          <mxGeometry width="160" relative="1" as="geometry">
            <mxPoint x="765" y="380" as="sourcePoint" />
            <mxPoint x="840" y="405" as="targetPoint" />
          </mxGeometry>
        </mxCell>
        <mxCell id="UFCYyzMz_3A-DWR7f4tb-91" value="" style="html=1;verticalAlign=bottom;labelBackgroundColor=none;startArrow=halfCircle;startFill=0;startSize=2;endArrow=none;rounded=0;strokeColor=#FFFFFF;entryX=1;entryY=0.5;entryDx=0;entryDy=0;strokeWidth=2;exitX=0;exitY=0.5;exitDx=0;exitDy=0;" parent="1" source="UFCYyzMz_3A-DWR7f4tb-89" target="UFCYyzMz_3A-DWR7f4tb-56" edge="1">
          <mxGeometry x="-1" y="3" relative="1" as="geometry">
            <mxPoint x="1240" y="405" as="sourcePoint" />
            <mxPoint x="1226" y="405" as="targetPoint" />
          </mxGeometry>
        </mxCell>
        <mxCell id="UFCYyzMz_3A-DWR7f4tb-92" value="XML / HTTPS" style="text;html=1;align=center;verticalAlign=middle;whiteSpace=wrap;rounded=0;fontColor=#FFFFFF;fontStyle=0;fontSize=13;" parent="1" vertex="1">
          <mxGeometry x="1240" y="400" width="60" height="30" as="geometry" />
        </mxCell>
        <mxCell id="r2EZdvs3VVpoFIRgZjMN-2" value="" style="html=1;verticalAlign=bottom;labelBackgroundColor=none;endArrow=open;endFill=0;dashed=1;rounded=0;strokeColor=#FFFFFF;exitX=1;exitY=0.5;exitDx=0;exitDy=0;entryX=0;entryY=0.5;entryDx=0;entryDy=0;strokeWidth=2;" parent="1" source="9hAh17yjtbbLotueZCNC-36" target="9hAh17yjtbbLotueZCNC-48" edge="1">
          <mxGeometry width="160" relative="1" as="geometry">
            <mxPoint x="685" y="309" as="sourcePoint" />
            <mxPoint x="840" y="210" as="targetPoint" />
          </mxGeometry>
        </mxCell>
        <mxCell id="_LMQ5iChlWoHFQO2ZLPE-2" value="External resources" style="html=1;dropTarget=0;whiteSpace=wrap;fontStyle=1;gradientColor=default;gradientDirection=west;fillColor=#303030;fontColor=#FFFFFF;strokeColor=#808080;strokeWidth=2;" parent="1" vertex="1">
          <mxGeometry x="1320" y="292.5" width="106" height="85" as="geometry" />
        </mxCell>
        <mxCell id="_LMQ5iChlWoHFQO2ZLPE-4" value="HTTP" style="text;html=1;align=center;verticalAlign=middle;whiteSpace=wrap;rounded=0;fontColor=#FFFFFF;fontStyle=0;fontSize=13;" parent="1" vertex="1">
          <mxGeometry x="1160" y="301" width="60" height="30" as="geometry" />
        </mxCell>
        <mxCell id="_LMQ5iChlWoHFQO2ZLPE-5" value="" style="sketch=0;pointerEvents=1;shadow=0;dashed=0;html=1;labelPosition=center;verticalLabelPosition=bottom;verticalAlign=top;outlineConnect=0;align=center;shape=mxgraph.office.concepts.document;fillColor=#000000;strokeColor=#000000;" parent="1" vertex="1">
          <mxGeometry x="1400" y="192.5" width="20" height="22.5" as="geometry" />
        </mxCell>
        <mxCell id="26ajTm_WkZ9R_pxoKDYX-1" value="" style="fontStyle=0;labelPosition=right;verticalLabelPosition=middle;align=left;verticalAlign=middle;spacingLeft=2;html=1;points=[[0,0.5],[1,0.5]];fillColor=#000000;strokeColor=#FFFFFF;" vertex="1" parent="1">
          <mxGeometry x="1250" y="325" width="20" height="20" as="geometry" />
        </mxCell>
        <mxCell id="26ajTm_WkZ9R_pxoKDYX-2" value="" style="endArrow=open;html=1;rounded=0;align=center;verticalAlign=top;endFill=0;labelBackgroundColor=none;endSize=6;entryX=0;entryY=0.5;entryDx=0;entryDy=0;strokeColor=#FFFFFF;exitX=1;exitY=0.5;exitDx=0;exitDy=0;" edge="1" parent="1" source="9hAh17yjtbbLotueZCNC-44" target="26ajTm_WkZ9R_pxoKDYX-1">
          <mxGeometry relative="1" as="geometry">
            <mxPoint x="1260" y="455" as="targetPoint" />
            <mxPoint x="1226" y="455" as="sourcePoint" />
          </mxGeometry>
        </mxCell>
        <mxCell id="26ajTm_WkZ9R_pxoKDYX-3" value="" style="html=1;verticalAlign=bottom;labelBackgroundColor=none;startArrow=halfCircle;startFill=0;startSize=2;endArrow=none;rounded=0;strokeColor=#FFFFFF;entryX=1;entryY=0.5;entryDx=0;entryDy=0;strokeWidth=2;" edge="1" parent="1" target="9hAh17yjtbbLotueZCNC-44">
          <mxGeometry x="-1" y="3" relative="1" as="geometry">
            <mxPoint x="1190" y="335" as="sourcePoint" />
            <mxPoint x="1226" y="455" as="targetPoint" />
          </mxGeometry>
        </mxCell>
        <mxCell id="26ajTm_WkZ9R_pxoKDYX-4" value="" style="endArrow=none;startArrow=none;endFill=0;startFill=0;endSize=8;html=1;verticalAlign=bottom;labelBackgroundColor=none;strokeWidth=2;rounded=0;strokeColor=#FFFFFF;entryX=1;entryY=0.5;entryDx=0;entryDy=0;exitX=0;exitY=0.5;exitDx=0;exitDy=0;" edge="1" parent="1" source="_LMQ5iChlWoHFQO2ZLPE-2" target="26ajTm_WkZ9R_pxoKDYX-5">
          <mxGeometry width="160" relative="1" as="geometry">
            <mxPoint x="1330" y="455" as="sourcePoint" />
            <mxPoint x="1310" y="455" as="targetPoint" />
          </mxGeometry>
        </mxCell>
        <mxCell id="26ajTm_WkZ9R_pxoKDYX-5" value="" style="ellipse;fillColor=strokeColor;html=1;strokeColor=#FFFFFF;" vertex="1" parent="1">
          <mxGeometry x="1290" y="330" width="10" height="10" as="geometry" />
        </mxCell>
        <mxCell id="26ajTm_WkZ9R_pxoKDYX-7" value="" style="html=1;verticalAlign=bottom;labelBackgroundColor=none;startArrow=halfCircle;startFill=0;startSize=2;endArrow=none;rounded=0;strokeColor=#FFFFFF;entryX=1;entryY=0.5;entryDx=0;entryDy=0;strokeWidth=2;exitX=0;exitY=0.5;exitDx=0;exitDy=0;" edge="1" parent="1" source="26ajTm_WkZ9R_pxoKDYX-5" target="26ajTm_WkZ9R_pxoKDYX-1">
          <mxGeometry x="-1" y="3" relative="1" as="geometry">
            <mxPoint x="1300" y="455" as="sourcePoint" />
            <mxPoint x="1280" y="455" as="targetPoint" />
          </mxGeometry>
        </mxCell>
      </root>
    </mxGraphModel>
  </diagram>
</mxfile>
